<svg width="351" height="138" xmlns="http://www.w3.org/2000/svg" xmlns:xlink="http://www.w3.org/1999/xlink" overflow="hidden"><defs><clipPath id="clip0"><rect x="75" y="399" width="351" height="138"/></clipPath></defs><g clip-path="url(#clip0)" transform="translate(-75 -399)"><path d="M83.2287 491.019 80.1261 491.46 77.6979 492.783 75.9443 494.657 75 496.972 75 497.854 75 498.075 75 498.295 75.1349 501.382 75.5396 504.469 76.2141 507.335 77.2933 510.202 78.5073 512.958 80.1261 515.604 81.8798 518.14 83.7683 520.565 86.0616 522.77 88.3548 524.865 91.0528 526.849 93.7507 528.724 96.7185 530.267 99.8211 531.7 103.059 533.023 106.431 534.016 109.938 534.787 113.446 535.449 117.223 535.779 121 535.89 124.642 535.779 128.419 535.449 131.927 534.898 135.434 534.016 138.806 533.023 142.044 531.811 145.147 530.377 147.979 528.724 150.812 526.96 153.375 524.975 155.804 522.88 156.208 522.439 121 522.439 117.897 522.329 114.795 521.888 111.962 521.227 109.264 520.455 106.566 519.352 104.138 518.14 101.845 516.596 99.6862 515.053 97.7977 513.289 96.1789 511.304 94.695 509.21 93.4809 507.005 92.5367 504.8 91.8622 502.374 91.5924 500.61 91.5924 500.169 91.5924 499.728 91.4575 499.177 91.4575 497.303 90.783 494.988 89.1642 493.003 86.7361 491.68 83.9032 491.019 83.2287 491.019Z" fill="#FFFFFF" fill-rule="evenodd"/><path d="M141.235 465 140.155 465 137.323 465.331 135.029 466.433 132.466 469.189 132.062 469.961 131.927 470.843 131.927 471.725 132.466 474.04 133.815 476.025 135.569 477.348 135.569 477.458 135.569 477.458 137.862 478.671 140.155 480.104 142.179 481.648 143.933 483.301 145.551 485.175 147.035 487.16 148.249 489.255 149.194 491.349 149.868 493.665 150.273 495.87 150.273 496.972 150.273 498.846 150.003 501.382 149.598 503.587 148.924 505.682 148.114 507.446 147.305 509.21 146.765 509.981 146.226 510.643 145.821 511.194 145.551 511.635 145.282 511.966 144.742 512.627 144.067 513.179 143.798 513.509 142.988 514.281 142.449 514.832 142.179 515.053 141.37 515.604 140.56 516.266 139.886 516.817 139.076 517.258 138.402 517.699 137.592 518.14 136.243 518.911 135.029 519.573 133.545 520.124 132.466 520.565 131.792 520.786 130.848 521.006 129.903 521.227 129.499 521.337 128.554 521.557 128.015 521.668 127.34 521.888 126.126 521.998 125.452 522.109 124.507 522.219 123.698 522.329 123.158 522.329 122.754 522.329 121.944 522.439 121 522.439 156.208 522.439 157.962 520.675 159.985 518.25 161.739 515.714 163.223 513.068 164.572 510.422 165.516 507.556 166.326 504.579 166.73 501.602 166.865 498.846 166.865 497.303 166.865 495.87 166.595 493.554 166.056 491.129 165.516 488.814 164.707 486.609 163.628 484.404 162.548 482.309 161.334 480.325 159.85 478.34 158.367 476.466 156.613 474.592 154.859 472.938 152.836 471.284 150.812 469.741 148.654 468.307 146.361 466.984 143.933 465.772 142.044 465.11 141.235 465Z" fill="#FFFFFF" fill-rule="evenodd"/><path d="M191.71 491.836 190.102 491.836 187.288 492.603 185.01 494.027 183.536 496.11 183 498.521 183 498.63 183.134 501.699 183.536 504.767 184.34 507.616 185.278 510.466 186.484 513.206 188.092 515.836 189.834 518.356 191.844 520.658 193.988 522.959 196.401 525.041 198.947 527.014 201.627 528.767 204.575 530.411 207.657 531.836 210.873 533.041 214.223 534.027 217.707 534.904 221.192 535.452 224.944 535.89 228.696 536 232.448 535.89 236.066 535.452 239.55 534.904 243.035 534.027 246.385 533.041 249.601 531.836 252.683 530.411 255.631 528.767 258.311 527.014 260.991 525.041 263.269 522.959 263.805 522.521 227.222 522.521 224.14 522.301 221.192 521.753 218.378 520.986 215.697 520.11 213.151 518.904 210.739 517.479 208.595 515.945 206.451 514.301 204.709 512.438 203.101 510.356 201.895 508.274 200.823 505.973 200.019 503.562 199.483 501.151 199.349 498.63 199.349 497.973 198.679 495.671 196.937 493.699 194.659 492.384 191.71 491.836Z" fill="#FFFFFF" fill-rule="evenodd"/><path d="M230.304 400 226.552 400.11 222.8 400.438 219.316 400.986 215.831 401.863 212.481 402.849 209.265 404.164 206.183 405.589 203.235 407.123 200.555 408.986 198.009 410.849 195.597 413.041 193.318 415.233 191.442 417.644 189.7 420.164 188.092 422.795 186.886 425.534 185.948 428.384 185.144 431.233 184.742 434.301 184.608 437.26 184.742 440.329 185.144 443.288 185.814 446.247 186.886 449.096 188.092 451.726 189.566 454.356 191.308 456.877 193.318 459.288 195.463 461.479 197.741 463.562 200.287 465.534 203.101 467.288 205.915 468.932 208.997 470.356 212.079 471.671 215.429 472.658 218.914 473.534 222.398 474.192 226.016 474.521 229.768 474.74 232.18 474.849 235.128 475.288 237.808 475.836 240.488 476.712 242.901 477.808 245.313 479.014 247.457 480.438 249.467 482.082 251.343 483.945 252.951 485.918 254.425 488 255.631 490.301 256.569 492.603 257.239 495.233 257.641 497.863 257.775 500.603 257.373 503.014 256.703 505.425 255.765 507.616 254.559 509.699 252.951 511.781 251.343 513.644 249.333 515.397 247.189 516.932 244.777 518.356 242.231 519.562 239.55 520.548 236.736 521.425 233.654 521.973 230.572 522.411 227.222 522.521 263.805 522.521 265.548 520.658 267.558 518.247 269.3 515.726 270.774 513.096 271.98 510.466 273.052 507.616 273.722 504.658 274.124 501.699 274.392 498.63 274.392 498.521 274.124 495.562 273.722 492.603 273.052 489.644 271.98 486.904 270.774 484.164 269.3 481.534 267.558 479.014 265.682 476.712 263.537 474.411 261.125 472.329 258.579 470.356 255.899 468.603 252.951 466.959 250.003 465.534 246.787 464.329 243.437 463.233 240.086 462.356 236.468 461.808 232.85 461.37 229.232 461.26 226.686 461.041 223.872 460.712 221.058 460.055 218.512 459.178 215.965 458.192 213.553 456.877 211.409 455.452 209.399 453.808 207.523 452.055 205.915 450.082 204.441 448 203.235 445.699 202.297 443.288 201.627 440.767 201.225 438.137 201.091 435.288 201.493 432.877 202.163 430.575 203.101 428.274 204.441 426.192 205.915 424.219 207.657 422.247 209.533 420.603 211.677 418.959 214.089 417.534 216.635 416.329 219.316 415.342 222.13 414.466 225.212 413.918 228.294 413.589 231.644 413.37 265.414 413.37 265.012 413.041 262.599 410.849 260.053 408.986 257.239 407.123 254.291 405.589 251.209 404.164 247.993 402.849 244.777 401.863 241.293 400.986 237.674 400.438 234.056 400.11 230.304 400Z" fill="#FFFFFF" fill-rule="evenodd"/><path d="M265.414 413.37 231.644 413.37 234.726 413.699 237.674 414.137 240.488 414.904 243.169 415.89 245.715 416.986 248.127 418.411 250.405 419.945 252.415 421.589 254.157 423.562 255.765 425.534 257.105 427.726 258.177 429.918 258.847 432.329 259.383 434.74 259.517 437.37 259.517 437.808 260.321 440.219 261.929 442.082 264.207 443.507 267.022 444.164 271.31 443.507 273.588 442.192 275.196 440.219 276 437.918 276 437.26 275.866 434.301 275.33 431.233 274.66 428.274 273.588 425.534 272.382 422.795 270.908 420.164 269.166 417.644 267.156 415.233 265.414 413.37Z" fill="#FFFFFF" fill-rule="evenodd"/><path d="M303.894 402 301.163 402.654 298.951 404.179 297.52 406.139 297 408.536 297 528.029 297 528.247 297.13 529.771 298.171 531.841 300.122 533.475 302.724 534.564 305.976 534.891 308.707 534.129 310.919 532.713 312.35 530.643 312.87 528.247 313 528.247 313 408.536 312.74 407.12 311.699 405.05 309.748 403.416 307.146 402.327 303.894 402Z" fill="#FFFFFF" fill-rule="evenodd"/><path d="M176.866 402 84.5616 402 82.1536 402.217 79.6119 403.084 77.6053 404.71 76.4013 406.878 76 409.588 76.8027 411.864 78.6755 413.707 81.2172 414.899 84.1603 415.441 148.105 415.441 113.725 463.353 113.056 464.328 112.788 465.412 112.788 466.93 113.323 468.881 114.661 470.615 116.801 472.024 119.744 472.783 123.356 473 125.898 472.024 127.771 470.398 133.924 461.835 176.866 402Z" fill="#F5821F" fill-rule="evenodd"/><path d="M340.71 491.836 339.102 491.836 336.288 492.603 334.01 494.027 332.536 496.11 332 498.521 332 498.63 332.134 501.699 332.536 504.767 333.34 507.616 334.278 510.466 335.484 513.206 337.092 515.836 338.834 518.356 340.844 520.658 342.988 522.959 345.401 525.041 347.947 527.014 350.627 528.767 353.575 530.411 356.657 531.836 359.873 533.041 363.223 534.027 366.707 534.904 370.192 535.452 373.944 535.89 377.696 536 381.448 535.89 385.066 535.452 388.55 534.904 392.035 534.027 395.385 533.041 398.601 531.836 401.683 530.411 404.631 528.767 407.311 527.014 409.991 525.041 412.269 522.959 412.805 522.521 376.222 522.521 373.14 522.301 370.192 521.753 367.378 520.986 364.697 520.11 362.151 518.904 359.739 517.479 357.595 515.945 355.451 514.301 353.709 512.438 352.101 510.356 350.895 508.274 349.823 505.973 349.019 503.562 348.483 501.151 348.349 498.63 348.349 497.973 347.679 495.671 345.937 493.699 343.659 492.384 340.71 491.836Z" fill="#FFFFFF" fill-rule="evenodd"/><path d="M379.304 400 375.552 400.11 371.8 400.438 368.316 400.986 364.831 401.863 361.481 402.849 358.265 404.164 355.183 405.589 352.235 407.123 349.555 408.986 347.009 410.849 344.597 413.041 342.318 415.233 340.442 417.644 338.7 420.164 337.092 422.795 335.886 425.534 334.948 428.384 334.144 431.233 333.742 434.301 333.608 437.26 333.742 440.329 334.144 443.288 334.814 446.247 335.886 449.096 337.092 451.726 338.566 454.356 340.308 456.877 342.318 459.288 344.463 461.479 346.741 463.562 349.287 465.534 352.101 467.288 354.915 468.932 357.997 470.356 361.079 471.671 364.429 472.658 367.914 473.534 371.398 474.192 375.016 474.521 378.768 474.74 381.18 474.849 384.128 475.288 386.808 475.836 389.488 476.712 391.901 477.808 394.313 479.014 396.457 480.438 398.467 482.082 400.343 483.945 401.951 485.918 403.425 488 404.631 490.301 405.569 492.603 406.239 495.233 406.641 497.863 406.775 500.603 406.373 503.014 405.703 505.425 404.765 507.616 403.559 509.699 401.951 511.781 400.343 513.644 398.333 515.397 396.189 516.932 393.777 518.356 391.231 519.562 388.55 520.548 385.736 521.425 382.654 521.973 379.572 522.411 376.222 522.521 412.805 522.521 414.548 520.658 416.558 518.247 418.3 515.726 419.774 513.096 420.98 510.466 422.052 507.616 422.722 504.658 423.124 501.699 423.392 498.63 423.392 498.521 423.124 495.562 422.722 492.603 422.052 489.644 420.98 486.904 419.774 484.164 418.3 481.534 416.558 479.014 414.682 476.712 412.537 474.411 410.125 472.329 407.579 470.356 404.899 468.603 401.951 466.959 399.003 465.534 395.787 464.329 392.437 463.233 389.086 462.356 385.468 461.808 381.85 461.37 378.232 461.26 375.686 461.041 372.872 460.712 370.058 460.055 367.512 459.178 364.965 458.192 362.553 456.877 360.409 455.452 358.399 453.808 356.523 452.055 354.915 450.082 353.441 448 352.235 445.699 351.297 443.288 350.627 440.767 350.225 438.137 350.091 435.288 350.493 432.877 351.163 430.575 352.101 428.274 353.441 426.192 354.915 424.219 356.657 422.247 358.533 420.603 360.677 418.959 363.089 417.534 365.635 416.329 368.316 415.342 371.13 414.466 374.212 413.918 377.294 413.589 380.644 413.37 414.414 413.37 414.012 413.041 411.599 410.849 409.053 408.986 406.239 407.123 403.291 405.589 400.209 404.164 396.993 402.849 393.777 401.863 390.293 400.986 386.674 400.438 383.056 400.11 379.304 400Z" fill="#FFFFFF" fill-rule="evenodd"/><path d="M414.414 413.37 380.644 413.37 383.726 413.699 386.674 414.137 389.488 414.904 392.169 415.89 394.715 416.986 397.127 418.411 399.405 419.945 401.415 421.589 403.157 423.562 404.765 425.534 406.105 427.726 407.177 429.918 407.847 432.329 408.383 434.74 408.517 437.37 408.517 437.808 409.321 440.219 410.929 442.082 413.207 443.507 416.022 444.164 420.31 443.507 422.588 442.192 424.196 440.219 425 437.918 425 437.26 424.866 434.301 424.33 431.233 423.66 428.274 422.588 425.534 421.382 422.795 419.908 420.164 418.166 417.644 416.156 415.233 414.414 413.37Z" fill="#FFFFFF" fill-rule="evenodd"/></g></svg>